<?xml version="1.0" encoding="UTF-8"?>
<svg version="1.1" xmlns="http://www.w3.org/2000/svg" width="100" height="100">
<path d="M0 0 C2.09446948 0.8414184 4.19629488 1.66216141 6.29931641 2.48193359 C7.63183789 3.01325786 8.96388734 3.54576781 10.29541016 4.07958984 C11.50245605 4.56024902 12.70950195 5.0409082 13.953125 5.53613281 C16.70947266 6.96240234 16.70947266 6.96240234 17.70947266 9.96240234 C12.95947266 12.96240234 12.95947266 12.96240234 10.70947266 12.96240234 C10.68230442 15.50414212 10.66255296 18.04558649 10.64697266 20.58740234 C10.6344043 21.65667969 10.6344043 21.65667969 10.62158203 22.74755859 C10.60636501 26.06486906 10.72808254 29.07406165 11.27587891 32.36083984 C11.70947266 34.96240234 11.70947266 34.96240234 10.70947266 36.96240234 C8.37613932 36.96240234 6.04280599 36.96240234 3.70947266 36.96240234 C2.51126482 38.81283662 1.40052284 40.72030497 0.33447266 42.64990234 C-1.93843955 46.75015587 -4.36538125 50.30908158 -7.29052734 53.96240234 C-7.62052734 54.95240234 -7.95052734 55.94240234 -8.29052734 56.96240234 C-11.75552734 57.45740234 -11.75552734 57.45740234 -15.29052734 57.96240234 C-16.75115585 55.31501318 -17.29052734 54.067919 -17.29052734 50.96240234 C-18.28052734 50.63240234 -19.27052734 50.30240234 -20.29052734 49.96240234 C-20.62052734 52.60240234 -20.95052734 55.24240234 -21.29052734 57.96240234 C-24.27639861 57.91263782 -26.49030317 57.85609091 -29.29052734 56.96240234 C-31.35302734 54.08740234 -31.35302734 54.08740234 -32.22021484 52.20458984 C-33.5730098 49.37063253 -35.25768356 46.83819023 -36.97802734 44.21240234 C-40.3067616 39.10881834 -41.45656082 35.70296416 -41.54052734 29.58740234 C-41.56630859 28.46591797 -41.59208984 27.34443359 -41.61865234 26.18896484 C-41.26092796 22.67134177 -40.32028258 20.81474259 -38.29052734 17.96240234 C-40.22677833 16.98076812 -42.16457273 16.0021778 -44.10302734 15.02490234 C-45.18197266 14.47962891 -46.26091797 13.93435547 -47.37255859 13.37255859 C-50.25264262 11.90388165 -50.25264262 11.90388165 -53.29052734 10.96240234 C-52.29052734 7.96240234 -52.29052734 7.96240234 -49.35058594 6.32080078 C-48.05222159 5.72562455 -46.74783808 5.1434727 -45.43896484 4.57177734 C-44.74670807 4.26290588 -44.05445129 3.95403442 -43.34121704 3.63580322 C-41.87249238 2.9849125 -40.40124328 2.33969326 -38.92773438 1.69970703 C-36.68625003 0.72144643 -34.45934718 -0.28559668 -32.23193359 -1.29541016 C-30.80173818 -1.924822 -29.37077066 -2.55248288 -27.93896484 -3.17822266 C-27.27826996 -3.48020569 -26.61757507 -3.78218872 -25.93685913 -4.09332275 C-16.7405655 -8.00170756 -8.63719865 -3.48231214 0 0 Z M-22.73974609 2.71240234 C-23.58730469 3.07333984 -24.43486328 3.43427734 -25.30810547 3.80615234 C-26.18917969 4.18771484 -27.07025391 4.56927734 -27.97802734 4.96240234 C-28.87070312 5.34396484 -29.76337891 5.72552734 -30.68310547 6.11865234 C-32.88768378 7.06178745 -35.08999938 8.00986412 -37.29052734 8.96240234 C-36.96052734 9.62240234 -36.63052734 10.28240234 -36.29052734 10.96240234 C-33.76319499 11.61795354 -33.76319499 11.61795354 -31.29052734 11.96240234 C-31.29052734 11.30240234 -31.29052734 10.64240234 -31.29052734 9.96240234 C-22.41707134 7.70882622 -14.76858775 6.83919264 -6.29052734 10.96240234 C-1.40169136 14.55744659 2.08977723 19.26245613 3.10791016 25.34130859 C3.36348806 27.54825829 3.56661007 29.74556907 3.70947266 31.96240234 C5.88937392 30.19686734 5.88937392 30.19686734 5.93652344 27.99121094 C5.92081299 26.81292725 5.92081299 26.81292725 5.90478516 25.61083984 C5.89511719 24.33466797 5.89511719 24.33466797 5.88525391 23.03271484 C5.86849609 22.14326172 5.85173828 21.25380859 5.83447266 20.33740234 C5.82544922 19.44021484 5.81642578 18.54302734 5.80712891 17.61865234 C5.78352235 15.39963649 5.75059575 13.18115157 5.70947266 10.96240234 C3.52325016 9.85564615 1.33556318 8.75195856 -0.85302734 7.64990234 C-1.46210937 7.34117188 -2.07119141 7.03244141 -2.69873047 6.71435547 C-12.35164491 1.3576282 -12.35164491 1.3576282 -22.73974609 2.71240234 Z M-29.29052734 12.96240234 C-29.29052734 13.62240234 -29.29052734 14.28240234 -29.29052734 14.96240234 C-28.68724609 14.89021484 -28.08396484 14.81802734 -27.46240234 14.74365234 C-26.26357422 14.60443359 -26.26357422 14.60443359 -25.04052734 14.46240234 C-23.85716797 14.32318359 -23.85716797 14.32318359 -22.64990234 14.18115234 C-16.94727287 13.65243173 -12.14701385 13.63057506 -7.41552734 17.02490234 C-6.71427734 17.66427734 -6.01302734 18.30365234 -5.29052734 18.96240234 C-4.63052734 18.63240234 -3.97052734 18.30240234 -3.29052734 17.96240234 C-4.38971551 16.97765021 -5.49508754 15.99979761 -6.60302734 15.02490234 C-7.21791016 14.47962891 -7.83279297 13.93435547 -8.46630859 13.37255859 C-11.71689359 10.85979374 -14.69849688 10.80207379 -18.66552734 10.77490234 C-19.60138672 10.76072266 -20.53724609 10.74654297 -21.50146484 10.73193359 C-24.45170889 10.97572127 -26.61416847 11.73127726 -29.29052734 12.96240234 Z M-30.29052734 14.96240234 C-30.62052734 15.62240234 -30.95052734 16.28240234 -31.29052734 16.96240234 C-30.63052734 16.96240234 -29.97052734 16.96240234 -29.29052734 16.96240234 C-29.62052734 16.30240234 -29.95052734 15.64240234 -30.29052734 14.96240234 Z M-22.29052734 14.96240234 C-22.29052734 15.95240234 -22.29052734 16.94240234 -22.29052734 17.96240234 C-21.63052734 17.96240234 -20.97052734 17.96240234 -20.29052734 17.96240234 C-20.62052734 16.97240234 -20.95052734 15.98240234 -21.29052734 14.96240234 C-21.62052734 14.96240234 -21.95052734 14.96240234 -22.29052734 14.96240234 Z M-27.29052734 16.96240234 C-26.63052734 17.62240234 -25.97052734 18.28240234 -25.29052734 18.96240234 C-25.29052734 18.30240234 -25.29052734 17.64240234 -25.29052734 16.96240234 C-25.95052734 16.96240234 -26.61052734 16.96240234 -27.29052734 16.96240234 Z M-36.29052734 18.96240234 C-39.29940759 25.83984291 -38.39836493 32.58058235 -36.10302734 39.58740234 C-34.23502843 43.06574516 -32.12722131 46.06838967 -29.69287109 49.16552734 C-28.48678968 50.71092414 -27.37792135 52.33131133 -26.29052734 53.96240234 C-25.63052734 53.96240234 -24.97052734 53.96240234 -24.29052734 53.96240234 C-24.29052734 52.64240234 -24.29052734 51.32240234 -24.29052734 49.96240234 C-24.95052734 49.63240234 -25.61052734 49.30240234 -26.29052734 48.96240234 C-26.57927734 48.05490234 -26.86802734 47.14740234 -27.16552734 46.21240234 C-28.36782804 42.73908921 -29.78313901 40.62650244 -32.29052734 37.96240234 C-32.95052734 37.96240234 -33.61052734 37.96240234 -34.29052734 37.96240234 C-34.62052734 35.98240234 -34.95052734 34.00240234 -35.29052734 31.96240234 C-33.97052734 31.63240234 -32.65052734 31.30240234 -31.29052734 30.96240234 C-32.28052734 30.63240234 -33.27052734 30.30240234 -34.29052734 29.96240234 C-34.17543073 28.54489671 -34.04799077 27.12839065 -33.91552734 25.71240234 C-33.84591797 24.92349609 -33.77630859 24.13458984 -33.70458984 23.32177734 C-33.27545622 20.87652535 -32.50452097 19.11403332 -31.29052734 16.96240234 C-33.44312662 16.96240234 -34.53997231 17.74231853 -36.29052734 18.96240234 Z M-20.29052734 18.96240234 C-20.29052734 25.23240234 -20.29052734 31.50240234 -20.29052734 37.96240234 C-19.96052734 37.96240234 -19.63052734 37.96240234 -19.29052734 37.96240234 C-19.29052734 31.69240234 -19.29052734 25.42240234 -19.29052734 18.96240234 C-19.62052734 18.96240234 -19.95052734 18.96240234 -20.29052734 18.96240234 Z M-3.29052734 18.96240234 C-2.96052734 20.61240234 -2.63052734 22.26240234 -2.29052734 23.96240234 C-1.96052734 22.97240234 -1.63052734 21.98240234 -1.29052734 20.96240234 C-1.95052734 20.30240234 -2.61052734 19.64240234 -3.29052734 18.96240234 Z M-10.29052734 20.96240234 C-10.29052734 23.27240234 -10.29052734 25.58240234 -10.29052734 27.96240234 C-9.30052734 27.96240234 -8.31052734 27.96240234 -7.29052734 27.96240234 C-7.62052734 26.97240234 -7.95052734 25.98240234 -8.29052734 24.96240234 C-8.29052734 23.64240234 -8.29052734 22.32240234 -8.29052734 20.96240234 C-8.95052734 20.96240234 -9.61052734 20.96240234 -10.29052734 20.96240234 Z M-28.29052734 21.96240234 C-27.96052734 23.61240234 -27.63052734 25.26240234 -27.29052734 26.96240234 C-26.96052734 26.96240234 -26.63052734 26.96240234 -26.29052734 26.96240234 C-26.29052734 25.31240234 -26.29052734 23.66240234 -26.29052734 21.96240234 C-26.95052734 21.96240234 -27.61052734 21.96240234 -28.29052734 21.96240234 Z M-17.29052734 21.96240234 C-16.96052734 22.62240234 -16.63052734 23.28240234 -16.29052734 23.96240234 C-15.96052734 23.30240234 -15.63052734 22.64240234 -15.29052734 21.96240234 C-15.95052734 21.96240234 -16.61052734 21.96240234 -17.29052734 21.96240234 Z M-33.29052734 23.96240234 C-32.29052734 25.96240234 -32.29052734 25.96240234 -32.29052734 25.96240234 Z M-31.29052734 23.96240234 C-31.62052734 24.95240234 -31.95052734 25.94240234 -32.29052734 26.96240234 C-31.30052734 26.63240234 -30.31052734 26.30240234 -29.29052734 25.96240234 C-29.29052734 25.30240234 -29.29052734 24.64240234 -29.29052734 23.96240234 C-29.95052734 23.96240234 -30.61052734 23.96240234 -31.29052734 23.96240234 Z M-7.29052734 23.96240234 C-6.96052734 24.95240234 -6.63052734 25.94240234 -6.29052734 26.96240234 C-5.63052734 26.63240234 -4.97052734 26.30240234 -4.29052734 25.96240234 C-4.62052734 25.30240234 -4.95052734 24.64240234 -5.29052734 23.96240234 C-5.95052734 23.96240234 -6.61052734 23.96240234 -7.29052734 23.96240234 Z M-1.29052734 23.96240234 C-1.37302734 24.91115234 -1.45552734 25.85990234 -1.54052734 26.83740234 C-2.29052734 29.96240234 -2.29052734 29.96240234 -4.35302734 31.33740234 C-4.99240234 31.54365234 -5.63177734 31.74990234 -6.29052734 31.96240234 C-4.64052734 31.96240234 -2.99052734 31.96240234 -1.29052734 31.96240234 C-5.90511894 39.47707324 -5.90511894 39.47707324 -7.97802734 42.08740234 C-9.49103199 44.05928144 -9.49103199 44.05928144 -10.35302734 47.14990234 C-11.29052734 49.96240234 -11.29052734 49.96240234 -13.29052734 50.96240234 C-13.29052734 51.95240234 -13.29052734 52.94240234 -13.29052734 53.96240234 C-9.1627561 52.5864786 -7.91924223 49.7440831 -5.72802734 46.21240234 C-5.3290625 45.59107422 -4.93009766 44.96974609 -4.51904297 44.32958984 C-0.55530911 38.05643508 1.1994355 33.43433566 0.70947266 25.96240234 C0.04947266 25.30240234 -0.61052734 24.64240234 -1.29052734 23.96240234 Z M-15.29052734 24.96240234 C-14.29052734 27.96240234 -14.29052734 27.96240234 -14.29052734 27.96240234 Z M-34.29052734 26.96240234 C-33.29052734 28.96240234 -33.29052734 28.96240234 -33.29052734 28.96240234 Z M-25.29052734 27.96240234 C-26.28052734 29.44740234 -26.28052734 29.44740234 -27.29052734 30.96240234 C-26.30052734 30.96240234 -25.31052734 30.96240234 -24.29052734 30.96240234 C-24.62052734 29.97240234 -24.95052734 28.98240234 -25.29052734 27.96240234 Z M-17.29052734 27.96240234 C-17.29052734 31.59240234 -17.29052734 35.22240234 -17.29052734 38.96240234 C-16.96052734 38.96240234 -16.63052734 38.96240234 -16.29052734 38.96240234 C-16.29052734 35.33240234 -16.29052734 31.70240234 -16.29052734 27.96240234 C-16.62052734 27.96240234 -16.95052734 27.96240234 -17.29052734 27.96240234 Z M-11.29052734 28.96240234 C-11.62052734 29.62240234 -11.95052734 30.28240234 -12.29052734 30.96240234 C-11.63052734 30.96240234 -10.97052734 30.96240234 -10.29052734 30.96240234 C-10.62052734 30.30240234 -10.95052734 29.64240234 -11.29052734 28.96240234 Z M-24.29052734 30.96240234 C-23.29052734 32.96240234 -23.29052734 32.96240234 -23.29052734 32.96240234 Z M-14.29052734 30.96240234 C-13.96052734 31.62240234 -13.63052734 32.28240234 -13.29052734 32.96240234 C-12.96052734 32.30240234 -12.63052734 31.64240234 -12.29052734 30.96240234 C-12.95052734 30.96240234 -13.61052734 30.96240234 -14.29052734 30.96240234 Z M-11.29052734 32.96240234 C-10.29052734 34.96240234 -10.29052734 34.96240234 -10.29052734 34.96240234 Z M-11.29052734 38.96240234 C-11.29052734 39.95240234 -11.29052734 40.94240234 -11.29052734 41.96240234 C-10.63052734 41.63240234 -9.97052734 41.30240234 -9.29052734 40.96240234 C-9.95052734 40.30240234 -10.61052734 39.64240234 -11.29052734 38.96240234 Z M-28.29052734 39.96240234 C-27.30052734 40.95240234 -26.31052734 41.94240234 -25.29052734 42.96240234 C-25.62052734 41.97240234 -25.95052734 40.98240234 -26.29052734 39.96240234 C-26.95052734 39.96240234 -27.61052734 39.96240234 -28.29052734 39.96240234 Z M-21.29052734 41.96240234 C-21.62052734 42.95240234 -21.95052734 43.94240234 -22.29052734 44.96240234 C-23.28052734 44.63240234 -24.27052734 44.30240234 -25.29052734 43.96240234 C-25.29052734 45.28240234 -25.29052734 46.60240234 -25.29052734 47.96240234 C-24.30052734 48.29240234 -23.31052734 48.62240234 -22.29052734 48.96240234 C-21.63052734 48.63240234 -20.97052734 48.30240234 -20.29052734 47.96240234 C-20.29052734 45.98240234 -20.29052734 44.00240234 -20.29052734 41.96240234 C-20.62052734 41.96240234 -20.95052734 41.96240234 -21.29052734 41.96240234 Z M-15.29052734 42.96240234 C-15.29052734 44.61240234 -15.29052734 46.26240234 -15.29052734 47.96240234 C-14.30052734 48.45740234 -14.30052734 48.45740234 -13.29052734 48.96240234 C-12.63052734 48.30240234 -11.97052734 47.64240234 -11.29052734 46.96240234 C-11.95052734 45.64240234 -12.61052734 44.32240234 -13.29052734 42.96240234 C-13.95052734 42.96240234 -14.61052734 42.96240234 -15.29052734 42.96240234 Z M-17.29052734 48.96240234 C-17.29052734 49.62240234 -17.29052734 50.28240234 -17.29052734 50.96240234 C-16.63052734 50.63240234 -15.97052734 50.30240234 -15.29052734 49.96240234 C-15.95052734 49.63240234 -16.61052734 49.30240234 -17.29052734 48.96240234 Z " fill="#0051AC" transform="translate(68.29052734375,8.03759765625)"/>
<path d="M0 0 C4.29973936 -1.05299739 4.29973936 -1.05299739 7 0 C9.95934488 3.80487198 14 9.01803234 14 14 C14.66 14 15.32 14 16 14 C19 18.38461538 19 18.38461538 19 21 C15.7 21 12.4 21 9 21 C12.3 21.99 15.6 22.98 19 24 C18.505 25.485 18.505 25.485 18 27 C7.77 27 -2.46 27 -13 27 C-14 22 -14 22 -12.5625 19.6875 C-12.046875 19.130625 -11.53125 18.57375 -11 18 C-13.64 17.34 -16.28 16.68 -19 16 C-19.33 14.35 -19.66 12.7 -20 11 C-15.71 11 -11.42 11 -7 11 C-7 11.99 -7 12.98 -7 14 C-5.9275 13.505 -4.855 13.01 -3.75 12.5 C-0.74583192 11.11346089 0.45934895 11 4 11 C3.71125 10.45730469 3.4225 9.91460937 3.125 9.35546875 C2.75375 8.64003906 2.3825 7.92460938 2 7.1875 C1.443125 6.12595703 1.443125 6.12595703 0.875 5.04296875 C0 3 0 3 0 0 Z M4 15 C4 15.33 4 15.66 4 16 C6.31 16 8.62 16 11 16 C11 15.67 11 15.34 11 15 C8.69 15 6.38 15 4 15 Z M-1 16 C3 17 3 17 3 17 Z " fill="#001A5F" transform="translate(63,67)"/>
<path d="M0 0 C-0.60990891 3.55780196 -1.5783681 6.6828589 -3 10 C-2.40832031 10.17015625 -1.81664063 10.3403125 -1.20703125 10.515625 C5.0275044 12.42768487 9.24740016 14.25426025 12.875 19.9375 C14.08418226 23.22916281 14.06325482 24.71357602 13 28 C12.11183594 27.83628906 11.22367188 27.67257813 10.30859375 27.50390625 C4.59005779 26.68697254 -1.174698 26.89490965 -6.9375 26.9375 C-8.09830078 26.94201172 -9.25910156 26.94652344 -10.45507812 26.95117188 C-13.30343934 26.96289353 -16.15169222 26.9793024 -19 27 C-19 26.01 -19 25.02 -19 24 C-16.03 23.01 -13.06 22.02 -10 21 C-12.97 21.33 -15.94 21.66 -19 22 C-18.13196155 18.52784618 -17.43736812 16.81918618 -15.56640625 13.92578125 C-15.08236328 13.17619141 -14.59832031 12.42660156 -14.09960938 11.65429688 C-13.59236328 10.88150391 -13.08511719 10.10871094 -12.5625 9.3125 C-12.05912109 8.52810547 -11.55574219 7.74371094 -11.03710938 6.93554688 C-6.41346659 -0.16877544 -6.41346659 -0.16877544 0 0 Z M-11 15 C-11 15.33 -11 15.66 -11 16 C-8.36 16 -5.72 16 -3 16 C-3 15.67 -3 15.34 -3 15 C-5.64 15 -8.28 15 -11 15 Z M-3 16 C1 17 1 17 1 17 Z " fill="#001A5F" transform="translate(33,66)"/>
<path d="M0 0 C6.93 0 13.86 0 21 0 C20.67 3.3 20.34 6.6 20 10 C14.06 10 8.12 10 2 10 C0 4 0 4 0 0 Z M3 4 C3 4.33 3 4.66 3 5 C8.28 5 13.56 5 19 5 C19 4.67 19 4.34 19 4 C13.72 4 8.44 4 3 4 Z " fill="#00256E" transform="translate(39,67)"/>
</svg>
